<?xml version="1.0" encoding="utf-8"?>
<!-- Generator: Adobe Illustrator 17.1.0, SVG Export Plug-In . SVG Version: 6.00 Build 0)  -->
<!DOCTYPE svg PUBLIC "-//W3C//DTD SVG 1.1//EN" "http://www.w3.org/Graphics/SVG/1.1/DTD/svg11.dtd">
<svg version="1.1" id="Calque_2" xmlns="http://www.w3.org/2000/svg" xmlns:xlink="http://www.w3.org/1999/xlink" x="0px" y="0px"
	 viewBox="108.8 290 397.5 318.7" enable-background="new 108.8 290 397.5 318.7" xml:space="preserve">
<rect y="225" display="none" fill="#1A1A1A" width="600" height="450"/>
<path id="ligneRouge" fill="none" stroke="#E87A74" stroke-width="3" stroke-miterlimit="10" d="M164.5,564.4V430
	c0,0-0.4-43.3,47.4-43.3s105.1,0,105.1,0c28.1,0,26.8-24.3,26.8-42.1c0-60.6,27.8-52,79.1-52"/>
<path id="ligneJaune" fill="none" stroke="#FFE592" stroke-width="3" stroke-miterlimit="10" d="M121.4,420.8v-40.4
	c0-29,23.4-52.5,52.5-52.5h0.6h0.6c29,0,52.5,23.4,52.5,52.5v40.4v0.6c0,29.8,24.2,54,54,54h72.6c20.4,0,37,16.6,37,37v82"/>
<path id="ligneBlanche" fill="none" stroke="#F2F2F2" stroke-width="3" stroke-miterlimit="10" d="M301.3,296.9v94
	c0,17.4,14.1,31.5,31.5,31.5h117.6c15.1,0,27.3,12.2,27.3,27.3v66.5c0,18.5-15,33.6-33.6,33.6H376c-11,0-19.9,8.9-19.9,19.9v39.1"/>
<path id="ligneBleue" fill="none" stroke="#94F0FF" stroke-width="3" stroke-miterlimit="10" d="M108.8,529.7h173.1
	c19.4,0,35.1-15.8,35.1-35.1v-15.5c0-17.6,14.2-32,32-32h157.4"/>
<circle display="none" fill="#E87A74" cx="164.1" cy="564.4" r="4.8"/>
<circle display="none" fill="#E87A74" cx="425.6" cy="291.6" r="4.8"/>
<circle display="none" fill="#FFE592" cx="390.9" cy="591.6" r="4.8"/>
<circle display="none" fill="#FFFFFF" cx="356.2" cy="608.4" r="4.8"/>
<circle display="none" fill="#FFFFFF" cx="300.9" cy="298.1" r="4.8"/>
<circle display="none" fill="#94F0FF" cx="506.2" cy="447.2" r="4.8"/>
<circle display="none" fill="#FFE592" cx="121.9" cy="420" r="4.8"/>
<circle display="none" fill="#94F0FF" cx="109.7" cy="529.7" r="4.8"/>
<circle display="none" fill="#F2F2F2" stroke="#CCCCCC" stroke-width="3" stroke-miterlimit="10" cx="228.2" cy="386.4" r="8.2"/>
<circle display="none" fill="#F2F2F2" stroke="#CCCCCC" stroke-width="3" stroke-miterlimit="10" cx="317.5" cy="475.9" r="8.2"/>
<circle display="none" fill="#F2F2F2" stroke="#CCCCCC" stroke-width="3" stroke-miterlimit="10" cx="301.2" cy="386.6" r="8.2"/>
<circle display="none" fill="#F2F2F2" stroke="#CCCCCC" stroke-width="3" stroke-miterlimit="10" cx="477.8" cy="448.2" r="8.2"/>
<circle display="none" fill="#F2F2F2" stroke="#CCCCCC" stroke-width="3" stroke-miterlimit="10" cx="391.6" cy="550.7" r="8.2"/>
<circle display="none" fill="#F2F2F2" stroke="#CCCCCC" stroke-width="3" stroke-miterlimit="10" cx="164.5" cy="529.3" r="8.2"/>
</svg>
